<svg xmlns="http://www.w3.org/2000/svg" viewBox="-1413 2899.1 13.2 21.2">
  <path fill="#EFEFEF" d="M-1404.2 2899.1c-.3 0-1.1.1-3.1.1-2.2 0-3-.1-3.3-.1-.1 0-.2 0-.2.2v.6c0 .1.1.1.2.1h1c.9 0 1.1.3 1.1.8.1 1 .1 5 .1 5.4v1.6c0 1.7.3 8.3-.3 9.9-.2.6-.6 1.2-1.3 1.4-.3-.7-1-1.2-1.8-1.2-.6-.1-1.2.4-1.3 1v.1c0 1 1.1 1.3 1.5 1.3 1.8-.2 3.4-1.4 4.2-3.1.6-1.2.9-2.5.8-3.8 0-.5.1-2.8.1-5.7v-1c0-2.8 0-5.7.1-6 0-.5.2-.7.8-.7h1.1c.1 0 .2 0 .2-.2v-.6c.3-.1.2-.1.1-.1zM-1401 2912.9c-.8-.1-1.4.5-1.5 1.2v.1c0 .7.6 1.3 1.3 1.3h.1c.7 0 1.2-.5 1.3-1.2v-.1c.1-.6-.5-1.2-1.2-1.3z"/>
</svg>
