<svg xmlns="http://www.w3.org/2000/svg" viewBox="-1362 2869 110 74">
  <g fill="#EFEFEF">
    <path d="M-1333 2895h-4c-.6 0-1 .4-1 1v21c0 .6.4 1 1 1h4c.6 0 1-.4 1-1v-21c0-.5-.4-1-1-1zM-1261 2901h-4c-.6 0-1 .4-1 1v9c0 .6.4 1 1 1h4c.6 0 1-.4 1-1v-9c0-.5-.4-1-1-1zM-1325 2878h-4c-.6 0-1 .4-1 1v54c0 .6.4 1 1 1h4c.6 0 1-.4 1-1v-54c0-.5-.4-1-1-1zM-1293 2888h-4c-.6 0-1 .4-1 1v35c0 .6.4 1 1 1h4c.6 0 1-.4 1-1v-35c0-.5-.4-1-1-1zM-1277 2881h-4c-.6 0-1 .4-1 1v49c0 .6.4 1 1 1h4c.6 0 1-.4 1-1v-49c0-.5-.4-1-1-1zM-1285 2898h-4c-.6 0-1 .4-1 1v15c0 .6.4 1 1 1h4c.6 0 1-.4 1-1v-15c0-.5-.4-1-1-1zM-1317 2895h-4c-.6 0-1 .4-1 1v20c0 .6.4 1 1 1h4c.6 0 1-.4 1-1v-20c0-.5-.4-1-1-1zM-1301 2872h-4c-.6 0-1 .4-1 1v67c0 .6.4 1 1 1h4c.6 0 1-.4 1-1v-67c0-.5-.4-1-1-1zM-1341 2888h-4c-.6 0-1 .4-1 1v35c0 .6.4 1 1 1h4c.6 0 1-.4 1-1v-35c0-.5-.4-1-1-1zM-1309 2888h-4c-.6 0-1 .4-1 1v35c0 .6.4 1 1 1h4c.6 0 1-.4 1-1v-35c0-.5-.4-1-1-1zM-1253 2888h-4c-.6 0-1 .4-1 1v35c0 .6.4 1 1 1h4c.6 0 1-.4 1-1v-35c0-.5-.4-1-1-1zM-1269 2893h-4c-.6 0-1 .4-1 1v25c0 .6.4 1 1 1h4c.6 0 1-.4 1-1v-25c0-.5-.4-1-1-1zM-1349 2878h-4c-.6 0-1 .4-1 1v54c0 .6.4 1 1 1h4c.6 0 1-.4 1-1v-54c0-.5-.4-1-1-1zM-1357 2893h-4c-.6 0-1 .4-1 1v25c0 .6.4 1 1 1h4c.6 0 1-.4 1-1v-25c0-.5-.4-1-1-1z"/>
  </g>
</svg>
